# xmcd
#
# Track frame offsets:
#	150
#	29831
#	42913
#	55627
#	98759
#	113070
#	126053
#	135298
#	150939
#	165433
#
# Disc length: 2809 seconds
#
# Revision: 0
# Processed by: cddbd v1.4PL0 Copyright (c) Steve Scherf et al.
# Submitted via: EasyCDDAExtractor 4.6.9.1
#
DISCID=700af70a
DTITLE=The Blues Brothers Review Show Band 2000
DYEAR=2000
DGENRE=R&B
TTITLE0=Blues Brothers Medley
TTITLE1=Riot In Cell Block Number 9
TTITLE2=R-e-s-p-e-c-t
TTITLE3=How Blue Can You Get
TTITLE4=Minnie The Moocher
TTITLE5=634-5789
TTITLE6=Looking For A Fox
TTITLE7=Love Light
TTITLE8=Jailhouse Rock
TTITLE9=Sweet Home Chicago
EXTD=
EXTT0=
EXTT1=
EXTT2=
EXTT3=
EXTT4=
EXTT5=
EXTT6=
EXTT7=
EXTT8=
EXTT9=
PLAYORDER=
